<svg width="40" height="40" viewBox="0 0 40 40" fill="none" xmlns="http://www.w3.org/2000/svg">
<rect width="40" height="40" rx="20" fill="url(#paint0_linear_254_1033)"/>
<path d="M20.75 8.83331C20.75 8.4191 20.4142 8.08331 20 8.08331C19.5858 8.08331 19.25 8.4191 19.25 8.83331H20.75ZM19.25 29.5C19.25 29.9142 19.5858 30.25 20 30.25C20.4142 30.25 20.75 29.9142 20.75 29.5H19.25ZM30.3334 19.9166C30.7476 19.9166 31.0834 19.5809 31.0834 19.1666C31.0834 18.7524 30.7476 18.4166 30.3334 18.4166V19.9166ZM9.66669 18.4166C9.25247 18.4166 8.91669 18.7524 8.91669 19.1666C8.91669 19.5809 9.25247 19.9166 9.66669 19.9166L9.66669 18.4166ZM22.6667 18.4166C22.2525 18.4166 21.9167 18.7524 21.9167 19.1666C21.9167 19.5809 22.2525 19.9166 22.6667 19.9166V18.4166ZM17.3334 19.9166C17.7476 19.9166 18.0834 19.5809 18.0834 19.1666C18.0834 18.7524 17.7476 18.4166 17.3334 18.4166V19.9166ZM19.25 8.83331V29.5H20.75V8.83331H19.25ZM30.3334 18.4166H22.6667V19.9166H30.3334V18.4166ZM17.3334 18.4166L9.66669 18.4166L9.66669 19.9166L17.3334 19.9166V18.4166Z" fill="url(#paint1_linear_254_1033)"/>
<defs>
<linearGradient id="paint0_linear_254_1033" x1="0" y1="0" x2="40" y2="40" gradientUnits="userSpaceOnUse">
<stop stop-color="#9A4DFF"/>
<stop offset="1" stop-color="#F600DD"/>
</linearGradient>
<linearGradient id="paint1_linear_254_1033" x1="9.66669" y1="8.83331" x2="30.3334" y2="29.5" gradientUnits="userSpaceOnUse">
<stop stop-color="#9A4DFF"/>
<stop offset="1" stop-color="#F600DD"/>
</linearGradient>
</defs>
</svg>
