<svg width="40" height="40" viewBox="0 0 40 40" fill="none" xmlns="http://www.w3.org/2000/svg">
<rect width="40" height="40" rx="20" fill="url(#paint0_linear_264_963)"/>
<path d="M20.75 8.83331C20.75 8.4191 20.4142 8.08331 20 8.08331C19.5857 8.08331 19.25 8.4191 19.25 8.83331H20.75ZM19.25 29.5C19.25 29.9142 19.5857 30.25 20 30.25C20.4142 30.25 20.75 29.9142 20.75 29.5H19.25ZM30.3333 19.9166C30.7475 19.9166 31.0833 19.5809 31.0833 19.1666C31.0833 18.7524 30.7475 18.4166 30.3333 18.4166V19.9166ZM9.66663 18.4166C9.25241 18.4166 8.91663 18.7524 8.91663 19.1666C8.91663 19.5809 9.25241 19.9166 9.66663 19.9166L9.66663 18.4166ZM22.6666 18.4166C22.2524 18.4166 21.9166 18.7524 21.9166 19.1666C21.9166 19.5809 22.2524 19.9166 22.6666 19.9166V18.4166ZM17.3333 19.9166C17.7475 19.9166 18.0833 19.5809 18.0833 19.1666C18.0833 18.7524 17.7475 18.4166 17.3333 18.4166L17.3333 19.9166ZM19.25 8.83331V29.5H20.75V8.83331H19.25ZM30.3333 18.4166H22.6666V19.9166H30.3333V18.4166ZM17.3333 18.4166L9.66663 18.4166L9.66663 19.9166L17.3333 19.9166L17.3333 18.4166Z" fill="white"/>
<defs>
<linearGradient id="paint0_linear_264_963" x1="0" y1="0" x2="40" y2="40" gradientUnits="userSpaceOnUse">
<stop stop-color="#9A4DFF"/>
<stop offset="1" stop-color="#F600DD"/>
</linearGradient>
</defs>
</svg>
