<svg width="48" height="48" viewBox="0 0 48 48" fill="none" xmlns="http://www.w3.org/2000/svg">
<rect width="48" height="48" rx="24" fill="#211D28"/>
<path d="M33.8406 15.157C34.2311 14.7665 34.2311 14.1333 33.8406 13.7428C33.45 13.3522 32.8169 13.3522 32.4264 13.7428L33.8406 15.157ZM14.1594 32.0097C13.7689 32.4002 13.7689 33.0334 14.1594 33.4239C14.55 33.8144 15.1831 33.8144 15.5736 33.4239L14.1594 32.0097ZM32.4264 33.4239C32.8169 33.8144 33.45 33.8144 33.8406 33.4239C34.2311 33.0334 34.2311 32.4002 33.8406 32.0097L32.4264 33.4239ZM15.5736 13.7428C15.1831 13.3522 14.55 13.3522 14.1594 13.7428C13.7689 14.1333 13.7689 14.7665 14.1594 15.157L15.5736 13.7428ZM27.0641 25.2332C26.6736 24.8427 26.0404 24.8427 25.6499 25.2332C25.2594 25.6238 25.2594 26.2569 25.6499 26.6475L27.0641 25.2332ZM20.9359 21.9334C21.3264 22.3239 21.9596 22.3239 22.3501 21.9334C22.7406 21.5429 22.7406 20.9097 22.3501 20.5192L20.9359 21.9334ZM32.4264 13.7428L14.1594 32.0097L15.5736 33.4239L33.8406 15.157L32.4264 13.7428ZM33.8406 32.0097L27.0641 25.2332L25.6499 26.6475L32.4264 33.4239L33.8406 32.0097ZM22.3501 20.5192L15.5736 13.7428L14.1594 15.157L20.9359 21.9334L22.3501 20.5192Z" fill="white"/>
</svg>
