<svg width="153" height="157" viewBox="0 0 153 157" fill="none" xmlns="http://www.w3.org/2000/svg">
<g filter="url(#filter0_d_105_460)">
<path d="M44.625 80.5L42.1838 78.7563C41.4159 79.8313 41.4417 81.282 42.2471 82.3291L44.625 80.5ZM76.5 35.875L78.9412 34.1313C78.3781 33.3429 77.4689 32.875 76.5 32.875C75.5311 32.875 74.6219 33.3429 74.0588 34.1313L76.5 35.875ZM108.375 80.5L110.753 82.3291C111.558 81.282 111.584 79.8313 110.816 78.7563L108.375 80.5ZM76.5 121.938L74.1221 123.767C74.69 124.505 75.5686 124.938 76.5 124.938C77.4314 124.938 78.31 124.505 78.8779 123.767L76.5 121.938ZM99.4323 62.8188C98.4692 61.4705 96.5956 61.1583 95.2474 62.1213C93.8991 63.0843 93.5868 64.958 94.5499 66.3062L99.4323 62.8188ZM85.4427 53.5562C86.4058 54.9045 88.2794 55.2167 89.6276 54.2537C90.9759 53.2907 91.2882 51.417 90.3251 50.0688L85.4427 53.5562ZM47.0662 82.2437L78.9412 37.6187L74.0588 34.1313L42.1838 78.7563L47.0662 82.2437ZM105.997 78.6709L74.1221 120.108L78.8779 123.767L110.753 82.3291L105.997 78.6709ZM78.8779 120.108L47.0029 78.6709L42.2471 82.3291L74.1221 123.767L78.8779 120.108ZM107.853 77.5458C83.0006 81.9387 69.4651 81.7982 45.1418 77.5448L44.1082 83.4552C69.0966 87.8248 83.3357 87.9725 108.897 83.4542L107.853 77.5458ZM73.5 35.875V121.938H79.5V35.875H73.5ZM94.5499 66.3062L105.934 82.2437L110.816 78.7563L99.4323 62.8188L94.5499 66.3062ZM74.0588 37.6187L85.4427 53.5562L90.3251 50.0688L78.9412 34.1313L74.0588 37.6187Z" fill="url(#paint0_linear_105_460)"/>
</g>
<defs>
<filter id="filter0_d_105_460" x="-32" y="-28" width="217" height="217" filterUnits="userSpaceOnUse" color-interpolation-filters="sRGB">
<feFlood flood-opacity="0" result="BackgroundImageFix"/>
<feColorMatrix in="SourceAlpha" type="matrix" values="0 0 0 0 0 0 0 0 0 0 0 0 0 0 0 0 0 0 127 0" result="hardAlpha"/>
<feOffset/>
<feGaussianBlur stdDeviation="16"/>
<feColorMatrix type="matrix" values="0 0 0 0 0.741176 0 0 0 0 0.188235 0 0 0 0 0.94902 0 0 0 0.5 0"/>
<feBlend mode="normal" in2="BackgroundImageFix" result="effect1_dropShadow_105_460"/>
<feBlend mode="normal" in="SourceGraphic" in2="effect1_dropShadow_105_460" result="shape"/>
</filter>
<linearGradient id="paint0_linear_105_460" x1="44.625" y1="35.875" x2="126.952" y2="96.8582" gradientUnits="userSpaceOnUse">
<stop stop-color="#9A4DFF"/>
<stop offset="1" stop-color="#F600DD"/>
</linearGradient>
</defs>
</svg>
