<svg width="40" height="40" viewBox="0 0 40 40" fill="none" xmlns="http://www.w3.org/2000/svg">
<path d="M11.6667 20L10.853 19.4188C10.5971 19.7771 10.6056 20.2607 10.8741 20.6098L11.6667 20ZM20.0001 8.33337L20.8138 7.75214C20.6261 7.48934 20.323 7.33337 20.0001 7.33337C19.6771 7.33337 19.3741 7.48934 19.1863 7.75214L20.0001 8.33337ZM28.3334 20L29.126 20.6098C29.3945 20.2607 29.4031 19.7771 29.1471 19.4188L28.3334 20ZM20.0001 30.8334L19.2075 31.4431C19.3968 31.6892 19.6896 31.8334 20.0001 31.8334C20.3106 31.8334 20.6034 31.6892 20.7927 31.4431L20.0001 30.8334ZM26.171 15.2521C25.8499 14.8027 25.2254 14.6986 24.776 15.0196C24.3266 15.3406 24.2225 15.9652 24.5435 16.4146L26.171 15.2521ZM22.1625 13.0813C22.4835 13.5307 23.1081 13.6348 23.5575 13.3138C24.0069 12.9928 24.111 12.3682 23.79 11.9188L22.1625 13.0813ZM12.4805 20.5813L20.8138 8.91461L19.1863 7.75214L10.853 19.4188L12.4805 20.5813ZM27.5408 19.3903L19.2075 30.2237L20.7927 31.4431L29.126 20.6098L27.5408 19.3903ZM20.7927 30.2237L12.4594 19.3903L10.8741 20.6098L19.2075 31.4431L20.7927 30.2237ZM28.1593 19.0153C21.6875 20.1593 18.1741 20.1228 11.839 19.015L11.4945 20.9851C18.0513 22.1317 21.7992 22.1705 28.5075 20.9848L28.1593 19.0153ZM19.0001 8.33337V30.8334H21.0001V8.33337H19.0001ZM24.5435 16.4146L27.5197 20.5813L29.1471 19.4188L26.171 15.2521L24.5435 16.4146ZM19.1863 8.91461L22.1625 13.0813L23.79 11.9188L20.8138 7.75214L19.1863 8.91461Z" fill="url(#paint0_linear_185_1335)"/>
<defs>
<linearGradient id="paint0_linear_185_1335" x1="11.6667" y1="8.33337" x2="33.1902" y2="24.2767" gradientUnits="userSpaceOnUse">
<stop stop-color="#9A4DFF"/>
<stop offset="1" stop-color="#F600DD"/>
</linearGradient>
</defs>
</svg>
