<svg width="24" height="24" viewBox="0 0 24 24" fill="none" xmlns="http://www.w3.org/2000/svg">
<path d="M15.2846 8.71991C15.6446 8.92484 16.1025 8.79915 16.3074 8.43918C16.5124 8.07921 16.3867 7.62127 16.0267 7.41634L15.2846 8.71991ZM18.147 8.93232C17.8335 8.66162 17.3599 8.69633 17.0892 9.00985C16.8185 9.32337 16.8532 9.79697 17.1667 10.0677L18.147 8.93232ZM4.91227 10.8987L4.35722 10.3943L4.91227 10.8987ZM18.5327 12.5969C17.8889 13.3054 16.9353 14.2301 15.7885 14.9734C14.6382 15.7188 13.3429 16.25 12 16.25V17.75C13.735 17.75 15.3146 17.0679 16.6043 16.2321C17.8973 15.3941 18.9487 14.3695 19.6428 13.6057L18.5327 12.5969ZM12 16.25C10.6571 16.25 9.36178 15.7188 8.21153 14.9734C7.0647 14.2301 6.11114 13.3054 5.46732 12.5969L4.35722 13.6057C5.0513 14.3695 6.10265 15.3941 7.39574 16.2321C8.6854 17.0679 10.265 17.75 12 17.75V16.25ZM5.46732 11.4031C6.11114 10.6946 7.0647 9.76989 8.21153 9.02664C9.36178 8.28117 10.6571 7.75 12 7.75V6.25C10.265 6.25 8.6854 6.93206 7.39574 7.76788C6.10265 8.60592 5.0513 9.63052 4.35722 10.3943L5.46732 11.4031ZM13.25 12C13.25 12.6904 12.6904 13.25 12 13.25V14.75C13.5188 14.75 14.75 13.5188 14.75 12H13.25ZM12 13.25C11.3096 13.25 10.75 12.6904 10.75 12H9.25C9.25 13.5188 10.4812 14.75 12 14.75V13.25ZM10.75 12C10.75 11.3096 11.3096 10.75 12 10.75V9.25C10.4812 9.25 9.25 10.4812 9.25 12H10.75ZM12 10.75C12.6904 10.75 13.25 11.3096 13.25 12H14.75C14.75 10.4812 13.5188 9.25 12 9.25V10.75ZM12 7.75C13.1482 7.75 14.2626 8.13807 15.2846 8.71991L16.0267 7.41634C14.8573 6.75064 13.4861 6.25 12 6.25V7.75ZM17.1667 10.0677C17.7082 10.5352 18.1702 11.0043 18.5318 11.4021L19.6418 10.3932C19.2484 9.96037 18.7432 9.44711 18.147 8.93232L17.1667 10.0677ZM5.46732 12.5969C5.15118 12.249 5.15118 11.751 5.46732 11.4031L4.35722 10.3943C3.52121 11.3143 3.52121 12.6857 4.35722 13.6057L5.46732 12.5969ZM19.6428 13.6057C20.4793 12.6852 20.4774 11.3125 19.6418 10.3932L18.5318 11.4021C18.8484 11.7505 18.8483 12.2496 18.5327 12.5969L19.6428 13.6057Z" fill="#EFEFFF"/>
</svg>
