<svg width="24" height="24" viewBox="0 0 24 24" fill="none" xmlns="http://www.w3.org/2000/svg">
<path d="M14.25 8C14.25 8.41421 14.5858 8.75 15 8.75C15.4142 8.75 15.75 8.41421 15.75 8H14.25ZM16.25 13V17H17.75V13H16.25ZM15 18.25H9V19.75H15V18.25ZM7.75 17V13H6.25V17H7.75ZM9.75 8C9.75 6.75736 10.7574 5.75 12 5.75V4.25C9.92893 4.25 8.25 5.92893 8.25 8H9.75ZM12 5.75C13.2426 5.75 14.25 6.75736 14.25 8H15.75C15.75 5.92893 14.0711 4.25 12 4.25V5.75ZM9 11.75H15V10.25H9V11.75ZM8.25 8V11H9.75V8H8.25ZM9 18.25C8.30964 18.25 7.75 17.6904 7.75 17H6.25C6.25 18.5188 7.48122 19.75 9 19.75V18.25ZM16.25 17C16.25 17.6904 15.6904 18.25 15 18.25V19.75C16.5188 19.75 17.75 18.5188 17.75 17H16.25ZM17.75 13C17.75 11.4812 16.5188 10.25 15 10.25V11.75C15.6904 11.75 16.25 12.3096 16.25 13H17.75ZM7.75 13C7.75 12.3096 8.30964 11.75 9 11.75V10.25C7.48122 10.25 6.25 11.4812 6.25 13H7.75Z" fill="url(#paint0_linear_106_481)"/>
<defs>
<linearGradient id="paint0_linear_106_481" x1="7" y1="5" x2="20.2432" y2="14.4595" gradientUnits="userSpaceOnUse">
<stop stop-color="#9A4DFF"/>
<stop offset="1" stop-color="#F600DD"/>
</linearGradient>
</defs>
</svg>
