<svg width="32" height="32" viewBox="0 0 32 32" fill="none" xmlns="http://www.w3.org/2000/svg">
<path d="M27.5304 3.56561L17.5367 10.9881L19.3848 6.60893L27.5304 3.56561Z" fill="#E2761B"/>
<path d="M4.45951 3.56561L14.3729 11.0584L12.6152 6.60893L4.45951 3.56561Z" fill="#E4761B"/>
<path d="M23.9347 20.7709L21.2731 24.8487L26.968 26.4156L28.6051 20.8613L23.9347 20.7709Z" fill="#E4761B"/>
<path d="M3.40489 20.8613L5.03201 26.4156L10.7269 24.8487L8.06528 20.7709L3.40489 20.8613Z" fill="#E4761B"/>
<path d="M10.4055 13.8807L8.81858 16.2812L14.4733 16.5323L14.2724 10.4558L10.4055 13.8807Z" fill="#E4761B"/>
<path d="M21.5844 13.8807L17.6673 10.3854L17.5367 16.5323L23.1814 16.2812L21.5844 13.8807Z" fill="#E4761B"/>
<path d="M10.7269 24.8487L14.1218 23.1915L11.1889 20.9015L10.7269 24.8487Z" fill="#E4761B"/>
<path d="M17.8682 23.1915L21.2731 24.8487L20.801 20.9015L17.8682 23.1915Z" fill="#E4761B"/>
<path d="M21.2731 24.8487L17.8682 23.1915L18.1394 25.4112L18.1092 26.3453L21.2731 24.8487Z" fill="#D7C1B3"/>
<path d="M10.7269 24.8487L13.8908 26.3453L13.8707 25.4112L14.1218 23.1915L10.7269 24.8487Z" fill="#D7C1B3"/>
<path d="M13.941 19.435L11.1086 18.6014L13.1073 17.6874L13.941 19.435Z" fill="#233447"/>
<path d="M18.049 19.435L18.8826 17.6874L20.8914 18.6014L18.049 19.435Z" fill="#233447"/>
<path d="M10.7269 24.8487L11.209 20.7709L8.06528 20.8613L10.7269 24.8487Z" fill="#CD6116"/>
<path d="M20.791 20.7709L21.2731 24.8487L23.9347 20.8613L20.791 20.7709Z" fill="#CD6116"/>
<path d="M23.1814 16.2812L17.5367 16.5323L18.059 19.435L18.8927 17.6874L20.9014 18.6014L23.1814 16.2812Z" fill="#CD6116"/>
<path d="M11.1086 18.6014L13.1174 17.6874L13.941 19.435L14.4733 16.5323L8.81858 16.2812L11.1086 18.6014Z" fill="#CD6116"/>
<path d="M8.81858 16.2812L11.1889 20.9015L11.1086 18.6014L8.81858 16.2812Z" fill="#E4751F"/>
<path d="M20.9014 18.6014L20.801 20.9015L23.1814 16.2812L20.9014 18.6014Z" fill="#E4751F"/>
<path d="M14.4733 16.5323L13.941 19.435L14.6039 22.86L14.7545 18.3503L14.4733 16.5323Z" fill="#E4751F"/>
<path d="M17.5367 16.5323L17.2655 18.3403L17.3861 22.86L18.059 19.435L17.5367 16.5323Z" fill="#E4751F"/>
<path d="M18.059 19.435L17.3861 22.86L17.8682 23.1915L20.801 20.9015L20.9014 18.6014L18.059 19.435Z" fill="#F6851B"/>
<path d="M11.1086 18.6014L11.1889 20.9015L14.1218 23.1915L14.6039 22.86L13.941 19.435L11.1086 18.6014Z" fill="#F6851B"/>
<path d="M18.1092 26.3453L18.1394 25.4112L17.8883 25.1902H14.1017L13.8707 25.4112L13.8908 26.3453L10.7269 24.8487L11.8318 25.7527L14.0716 27.3095H17.9184L20.1682 25.7527L21.2731 24.8487L18.1092 26.3453Z" fill="#C0AD9E"/>
<path d="M17.8682 23.1915L17.3861 22.86H14.6039L14.1218 23.1915L13.8707 25.4112L14.1017 25.1902H17.8883L18.1394 25.4112L17.8682 23.1915Z" fill="#161616"/>
<path d="M27.9523 11.4702L28.806 7.37227L27.5304 3.56561L17.8682 10.737L21.5844 13.8807L26.8374 15.4175L28.0025 14.0615L27.5003 13.7L28.3038 12.9667L27.6811 12.4846L28.4846 11.872L27.9523 11.4702Z" fill="#763D16"/>
<path d="M3.19397 7.37227L4.04771 11.4702L3.50533 11.872L4.30885 12.4846L3.69617 12.9667L4.49968 13.7L3.99749 14.0615L5.15254 15.4175L10.4055 13.8807L14.1218 10.737L4.45951 3.56561L3.19397 7.37227Z" fill="#763D16"/>
<path d="M26.8374 15.4175L21.5844 13.8807L23.1814 16.2812L20.801 20.9015L23.9347 20.8613H28.6051L26.8374 15.4175Z" fill="#F6851B"/>
<path d="M10.4055 13.8807L5.15254 15.4175L3.40489 20.8613H8.06528L11.1889 20.9015L8.81858 16.2812L10.4055 13.8807Z" fill="#F6851B"/>
<path d="M17.5367 16.5323L17.8682 10.737L19.3948 6.60893L12.6152 6.60893L14.1218 10.737L14.4733 16.5323L14.5938 18.3603L14.6039 22.86H17.3861L17.4061 18.3603L17.5367 16.5323Z" fill="#F6851B"/>
<g style="mix-blend-mode:color">
<path d="M27.5304 3.56561L17.5367 10.9881L19.3848 6.60893L27.5304 3.56561Z" fill="url(#paint0_linear_108_458)"/>
<path d="M4.45951 3.56561L14.3729 11.0584L12.6152 6.60893L4.45951 3.56561Z" fill="url(#paint1_linear_108_458)"/>
<path d="M23.9347 20.7709L21.2731 24.8487L26.968 26.4156L28.6051 20.8613L23.9347 20.7709Z" fill="url(#paint2_linear_108_458)"/>
<path d="M3.40489 20.8613L5.03201 26.4156L10.7269 24.8487L8.06528 20.7709L3.40489 20.8613Z" fill="url(#paint3_linear_108_458)"/>
<path d="M10.4055 13.8807L8.81858 16.2812L14.4733 16.5323L14.2724 10.4558L10.4055 13.8807Z" fill="url(#paint4_linear_108_458)"/>
<path d="M21.5844 13.8807L17.6673 10.3854L17.5367 16.5323L23.1814 16.2812L21.5844 13.8807Z" fill="url(#paint5_linear_108_458)"/>
<path d="M10.7269 24.8487L14.1218 23.1915L11.1889 20.9015L10.7269 24.8487Z" fill="url(#paint6_linear_108_458)"/>
<path d="M17.8682 23.1915L21.2731 24.8487L20.801 20.9015L17.8682 23.1915Z" fill="url(#paint7_linear_108_458)"/>
<path d="M21.2731 24.8487L17.8682 23.1915L18.1394 25.4112L18.1092 26.3453L21.2731 24.8487Z" fill="url(#paint8_linear_108_458)"/>
<path d="M10.7269 24.8487L13.8908 26.3453L13.8707 25.4112L14.1218 23.1915L10.7269 24.8487Z" fill="url(#paint9_linear_108_458)"/>
<path d="M13.941 19.435L11.1086 18.6014L13.1073 17.6874L13.941 19.435Z" fill="url(#paint10_linear_108_458)"/>
<path d="M18.049 19.435L18.8826 17.6874L20.8914 18.6014L18.049 19.435Z" fill="url(#paint11_linear_108_458)"/>
<path d="M10.7269 24.8487L11.209 20.7709L8.06528 20.8613L10.7269 24.8487Z" fill="url(#paint12_linear_108_458)"/>
<path d="M20.791 20.7709L21.2731 24.8487L23.9347 20.8613L20.791 20.7709Z" fill="url(#paint13_linear_108_458)"/>
<path d="M23.1814 16.2812L17.5367 16.5323L18.059 19.435L18.8927 17.6874L20.9014 18.6014L23.1814 16.2812Z" fill="url(#paint14_linear_108_458)"/>
<path d="M11.1086 18.6014L13.1174 17.6874L13.941 19.435L14.4733 16.5323L8.81858 16.2812L11.1086 18.6014Z" fill="url(#paint15_linear_108_458)"/>
<path d="M8.81858 16.2812L11.1889 20.9015L11.1086 18.6014L8.81858 16.2812Z" fill="url(#paint16_linear_108_458)"/>
<path d="M20.9014 18.6014L20.801 20.9015L23.1814 16.2812L20.9014 18.6014Z" fill="url(#paint17_linear_108_458)"/>
<path d="M14.4733 16.5323L13.941 19.435L14.6039 22.86L14.7545 18.3503L14.4733 16.5323Z" fill="url(#paint18_linear_108_458)"/>
<path d="M17.5367 16.5323L17.2655 18.3403L17.3861 22.86L18.059 19.435L17.5367 16.5323Z" fill="url(#paint19_linear_108_458)"/>
<path d="M18.059 19.435L17.3861 22.86L17.8682 23.1915L20.801 20.9015L20.9014 18.6014L18.059 19.435Z" fill="url(#paint20_linear_108_458)"/>
<path d="M11.1086 18.6014L11.1889 20.9015L14.1218 23.1915L14.6039 22.86L13.941 19.435L11.1086 18.6014Z" fill="url(#paint21_linear_108_458)"/>
<path d="M18.1092 26.3453L18.1394 25.4112L17.8883 25.1902H14.1017L13.8707 25.4112L13.8908 26.3453L10.7269 24.8487L11.8318 25.7527L14.0716 27.3095H17.9184L20.1682 25.7527L21.2731 24.8487L18.1092 26.3453Z" fill="url(#paint22_linear_108_458)"/>
<path d="M17.8682 23.1915L17.3861 22.86H14.6039L14.1218 23.1915L13.8707 25.4112L14.1017 25.1902H17.8883L18.1394 25.4112L17.8682 23.1915Z" fill="url(#paint23_linear_108_458)"/>
<path d="M27.9523 11.4702L28.806 7.37227L27.5304 3.56561L17.8682 10.737L21.5844 13.8807L26.8374 15.4175L28.0025 14.0615L27.5003 13.7L28.3038 12.9667L27.6811 12.4846L28.4846 11.872L27.9523 11.4702Z" fill="url(#paint24_linear_108_458)"/>
<path d="M3.19397 7.37227L4.04771 11.4702L3.50533 11.872L4.30885 12.4846L3.69617 12.9667L4.49968 13.7L3.99749 14.0615L5.15254 15.4175L10.4055 13.8807L14.1218 10.737L4.45951 3.56561L3.19397 7.37227Z" fill="url(#paint25_linear_108_458)"/>
<path d="M26.8374 15.4175L21.5844 13.8807L23.1814 16.2812L20.801 20.9015L23.9347 20.8613H28.6051L26.8374 15.4175Z" fill="url(#paint26_linear_108_458)"/>
<path d="M10.4055 13.8807L5.15254 15.4175L3.40489 20.8613H8.06528L11.1889 20.9015L8.81858 16.2812L10.4055 13.8807Z" fill="url(#paint27_linear_108_458)"/>
<path d="M17.5367 16.5323L17.8682 10.737L19.3948 6.60893L12.6152 6.60893L14.1218 10.737L14.4733 16.5323L14.5938 18.3603L14.6039 22.86H17.3861L17.4061 18.3603L17.5367 16.5323Z" fill="url(#paint28_linear_108_458)"/>
</g>
<defs>
<linearGradient id="paint0_linear_108_458" x1="3.19397" y1="3.56561" x2="26.8699" y2="29.1044" gradientUnits="userSpaceOnUse">
<stop stop-color="#9A4DFF"/>
<stop offset="1" stop-color="#F600DD"/>
</linearGradient>
<linearGradient id="paint1_linear_108_458" x1="3.19397" y1="3.56561" x2="26.8699" y2="29.1044" gradientUnits="userSpaceOnUse">
<stop stop-color="#9A4DFF"/>
<stop offset="1" stop-color="#F600DD"/>
</linearGradient>
<linearGradient id="paint2_linear_108_458" x1="3.19397" y1="3.56561" x2="26.8699" y2="29.1044" gradientUnits="userSpaceOnUse">
<stop stop-color="#9A4DFF"/>
<stop offset="1" stop-color="#F600DD"/>
</linearGradient>
<linearGradient id="paint3_linear_108_458" x1="3.19397" y1="3.56561" x2="26.8699" y2="29.1044" gradientUnits="userSpaceOnUse">
<stop stop-color="#9A4DFF"/>
<stop offset="1" stop-color="#F600DD"/>
</linearGradient>
<linearGradient id="paint4_linear_108_458" x1="3.19397" y1="3.56561" x2="26.8699" y2="29.1044" gradientUnits="userSpaceOnUse">
<stop stop-color="#9A4DFF"/>
<stop offset="1" stop-color="#F600DD"/>
</linearGradient>
<linearGradient id="paint5_linear_108_458" x1="3.19397" y1="3.56561" x2="26.8699" y2="29.1044" gradientUnits="userSpaceOnUse">
<stop stop-color="#9A4DFF"/>
<stop offset="1" stop-color="#F600DD"/>
</linearGradient>
<linearGradient id="paint6_linear_108_458" x1="3.19397" y1="3.56561" x2="26.8699" y2="29.1044" gradientUnits="userSpaceOnUse">
<stop stop-color="#9A4DFF"/>
<stop offset="1" stop-color="#F600DD"/>
</linearGradient>
<linearGradient id="paint7_linear_108_458" x1="3.19397" y1="3.56561" x2="26.8699" y2="29.1044" gradientUnits="userSpaceOnUse">
<stop stop-color="#9A4DFF"/>
<stop offset="1" stop-color="#F600DD"/>
</linearGradient>
<linearGradient id="paint8_linear_108_458" x1="3.19397" y1="3.56561" x2="26.8699" y2="29.1044" gradientUnits="userSpaceOnUse">
<stop stop-color="#9A4DFF"/>
<stop offset="1" stop-color="#F600DD"/>
</linearGradient>
<linearGradient id="paint9_linear_108_458" x1="3.19397" y1="3.56561" x2="26.8699" y2="29.1044" gradientUnits="userSpaceOnUse">
<stop stop-color="#9A4DFF"/>
<stop offset="1" stop-color="#F600DD"/>
</linearGradient>
<linearGradient id="paint10_linear_108_458" x1="3.19397" y1="3.56561" x2="26.8699" y2="29.1044" gradientUnits="userSpaceOnUse">
<stop stop-color="#9A4DFF"/>
<stop offset="1" stop-color="#F600DD"/>
</linearGradient>
<linearGradient id="paint11_linear_108_458" x1="3.19397" y1="3.56561" x2="26.8699" y2="29.1044" gradientUnits="userSpaceOnUse">
<stop stop-color="#9A4DFF"/>
<stop offset="1" stop-color="#F600DD"/>
</linearGradient>
<linearGradient id="paint12_linear_108_458" x1="3.19397" y1="3.56561" x2="26.8699" y2="29.1044" gradientUnits="userSpaceOnUse">
<stop stop-color="#9A4DFF"/>
<stop offset="1" stop-color="#F600DD"/>
</linearGradient>
<linearGradient id="paint13_linear_108_458" x1="3.19397" y1="3.56561" x2="26.8699" y2="29.1044" gradientUnits="userSpaceOnUse">
<stop stop-color="#9A4DFF"/>
<stop offset="1" stop-color="#F600DD"/>
</linearGradient>
<linearGradient id="paint14_linear_108_458" x1="3.19397" y1="3.56561" x2="26.8699" y2="29.1044" gradientUnits="userSpaceOnUse">
<stop stop-color="#9A4DFF"/>
<stop offset="1" stop-color="#F600DD"/>
</linearGradient>
<linearGradient id="paint15_linear_108_458" x1="3.19397" y1="3.56561" x2="26.8699" y2="29.1044" gradientUnits="userSpaceOnUse">
<stop stop-color="#9A4DFF"/>
<stop offset="1" stop-color="#F600DD"/>
</linearGradient>
<linearGradient id="paint16_linear_108_458" x1="3.19397" y1="3.56561" x2="26.8699" y2="29.1044" gradientUnits="userSpaceOnUse">
<stop stop-color="#9A4DFF"/>
<stop offset="1" stop-color="#F600DD"/>
</linearGradient>
<linearGradient id="paint17_linear_108_458" x1="3.19397" y1="3.56561" x2="26.8699" y2="29.1044" gradientUnits="userSpaceOnUse">
<stop stop-color="#9A4DFF"/>
<stop offset="1" stop-color="#F600DD"/>
</linearGradient>
<linearGradient id="paint18_linear_108_458" x1="3.19397" y1="3.56561" x2="26.8699" y2="29.1044" gradientUnits="userSpaceOnUse">
<stop stop-color="#9A4DFF"/>
<stop offset="1" stop-color="#F600DD"/>
</linearGradient>
<linearGradient id="paint19_linear_108_458" x1="3.19397" y1="3.56561" x2="26.8699" y2="29.1044" gradientUnits="userSpaceOnUse">
<stop stop-color="#9A4DFF"/>
<stop offset="1" stop-color="#F600DD"/>
</linearGradient>
<linearGradient id="paint20_linear_108_458" x1="3.19397" y1="3.56561" x2="26.8699" y2="29.1044" gradientUnits="userSpaceOnUse">
<stop stop-color="#9A4DFF"/>
<stop offset="1" stop-color="#F600DD"/>
</linearGradient>
<linearGradient id="paint21_linear_108_458" x1="3.19397" y1="3.56561" x2="26.8699" y2="29.1044" gradientUnits="userSpaceOnUse">
<stop stop-color="#9A4DFF"/>
<stop offset="1" stop-color="#F600DD"/>
</linearGradient>
<linearGradient id="paint22_linear_108_458" x1="3.19397" y1="3.56561" x2="26.8699" y2="29.1044" gradientUnits="userSpaceOnUse">
<stop stop-color="#9A4DFF"/>
<stop offset="1" stop-color="#F600DD"/>
</linearGradient>
<linearGradient id="paint23_linear_108_458" x1="3.19397" y1="3.56561" x2="26.8699" y2="29.1044" gradientUnits="userSpaceOnUse">
<stop stop-color="#9A4DFF"/>
<stop offset="1" stop-color="#F600DD"/>
</linearGradient>
<linearGradient id="paint24_linear_108_458" x1="3.19397" y1="3.56561" x2="26.8699" y2="29.1044" gradientUnits="userSpaceOnUse">
<stop stop-color="#9A4DFF"/>
<stop offset="1" stop-color="#F600DD"/>
</linearGradient>
<linearGradient id="paint25_linear_108_458" x1="3.19397" y1="3.56561" x2="26.8699" y2="29.1044" gradientUnits="userSpaceOnUse">
<stop stop-color="#9A4DFF"/>
<stop offset="1" stop-color="#F600DD"/>
</linearGradient>
<linearGradient id="paint26_linear_108_458" x1="3.19397" y1="3.56561" x2="26.8699" y2="29.1044" gradientUnits="userSpaceOnUse">
<stop stop-color="#9A4DFF"/>
<stop offset="1" stop-color="#F600DD"/>
</linearGradient>
<linearGradient id="paint27_linear_108_458" x1="3.19397" y1="3.56561" x2="26.8699" y2="29.1044" gradientUnits="userSpaceOnUse">
<stop stop-color="#9A4DFF"/>
<stop offset="1" stop-color="#F600DD"/>
</linearGradient>
<linearGradient id="paint28_linear_108_458" x1="3.19397" y1="3.56561" x2="26.8699" y2="29.1044" gradientUnits="userSpaceOnUse">
<stop stop-color="#9A4DFF"/>
<stop offset="1" stop-color="#F600DD"/>
</linearGradient>
</defs>
</svg>
