<svg width="24" height="24" viewBox="0 0 24 24" fill="none" xmlns="http://www.w3.org/2000/svg">
<path d="M8.16559 17.8573L8.57695 17.2302L8.16559 17.8573ZM15.8344 17.8573L16.2458 18.4845L15.8344 17.8573ZM19.0038 8.67818C18.8261 8.30404 18.3787 8.14482 18.0045 8.32255C17.6304 8.50029 17.4712 8.94768 17.6489 9.32182L19.0038 8.67818ZM16.0176 7.21214C16.3347 7.47857 16.8078 7.43746 17.0743 7.12031C17.3407 6.80316 17.2996 6.33007 16.9824 6.06364L16.0176 7.21214ZM9 11.25C8.58579 11.25 8.25 11.5858 8.25 12C8.25 12.4142 8.58579 12.75 9 12.75V11.25ZM15 12.75C15.4142 12.75 15.75 12.4142 15.75 12C15.75 11.5858 15.4142 11.25 15 11.25V12.75ZM12.75 9C12.75 8.58579 12.4142 8.25 12 8.25C11.5858 8.25 11.25 8.58579 11.25 9H12.75ZM11.25 15C11.25 15.4142 11.5858 15.75 12 15.75C12.4142 15.75 12.75 15.4142 12.75 15H11.25ZM5.75 12C5.75 8.54822 8.54822 5.75 12 5.75V4.25C7.71979 4.25 4.25 7.71979 4.25 12H5.75ZM12 18.25C10.735 18.25 9.55986 17.875 8.57695 17.2302L7.75422 18.4845C8.97408 19.2846 10.4338 19.75 12 19.75V18.25ZM8.57695 17.2302C6.87281 16.1124 5.75 14.1871 5.75 12H4.25C4.25 14.7137 5.64536 17.1011 7.75422 18.4845L8.57695 17.2302ZM18.25 12C18.25 14.1871 17.1272 16.1124 15.423 17.2302L16.2458 18.4845C18.3546 17.1011 19.75 14.7137 19.75 12H18.25ZM15.423 17.2302C14.4401 17.875 13.265 18.25 12 18.25V19.75C13.5662 19.75 15.0259 19.2846 16.2458 18.4845L15.423 17.2302ZM17.6489 9.32182C18.0341 10.1326 18.25 11.0401 18.25 12H19.75C19.75 10.8127 19.4825 9.68587 19.0038 8.67818L17.6489 9.32182ZM12 5.75C13.5306 5.75 14.9309 6.2992 16.0176 7.21214L16.9824 6.06364C15.6356 4.93215 13.8965 4.25 12 4.25V5.75ZM9 12.75H15V11.25H9V12.75ZM11.25 9V15H12.75V9H11.25Z" fill="white"/>
</svg>
