<svg width="41" height="40" viewBox="0 0 41 40" fill="none" xmlns="http://www.w3.org/2000/svg">
<path d="M10.5 19C9.94772 19 9.5 19.4477 9.5 20C9.5 20.5523 9.94772 21 10.5 21V19ZM14.1897 18.8123L13.2318 18.5249L14.1897 18.8123ZM16.4268 11.3551L17.3847 11.6424L17.3847 11.6424L16.4268 11.3551ZM24.5732 28.645L23.6153 28.3577L24.5732 28.645ZM26.8103 21.1878L27.7682 21.4751L27.7682 21.4751L26.8103 21.1878ZM30.5 21C31.0523 21 31.5 20.5523 31.5 20C31.5 19.4477 31.0523 19 30.5 19V21ZM21.7034 21.9839C21.6484 21.4343 21.1584 21.0334 20.6088 21.0883C20.0593 21.1433 19.6583 21.6333 19.7133 22.1829L21.7034 21.9839ZM21.3333 28.3334L20.3383 28.4329L21.3333 28.3334ZM19.6667 11.6667L20.6617 11.5672V11.5672L19.6667 11.6667ZM19.2966 18.0162C19.3516 18.5657 19.8416 18.9667 20.3912 18.9117C20.9407 18.8568 21.3417 18.3667 21.2867 17.8172L19.2966 18.0162ZM10.5 21H12.5933V19H10.5V21ZM15.1475 19.0996L17.3847 11.6424L15.469 11.0677L13.2318 18.5249L15.1475 19.0996ZM25.531 28.9323L27.7682 21.4751L25.8525 20.9004L23.6153 28.3577L25.531 28.9323ZM28.4067 21H30.5V19H28.4067V21ZM19.7133 22.1829L20.3383 28.4329L22.3284 28.2339L21.7034 21.9839L19.7133 22.1829ZM18.6716 11.7662L19.2966 18.0162L21.2867 17.8172L20.6617 11.5672L18.6716 11.7662ZM27.7682 21.4751C27.8528 21.1931 28.1123 21 28.4067 21V19C27.2291 19 26.1909 19.7725 25.8525 20.9004L27.7682 21.4751ZM23.6153 28.3577C23.408 29.0489 22.4002 28.952 22.3284 28.2339L20.3383 28.4329C20.628 31.3303 24.6943 31.7215 25.531 28.9323L23.6153 28.3577ZM17.3847 11.6424C17.592 10.9511 18.5998 11.0481 18.6716 11.7662L20.6617 11.5672C20.372 8.66971 16.3057 8.27858 15.469 11.0677L17.3847 11.6424ZM12.5933 21C13.7709 21 14.8091 20.2276 15.1475 19.0996L13.2318 18.5249C13.1472 18.8069 12.8877 19 12.5933 19V21Z" fill="url(#paint0_linear_185_1339)"/>
<defs>
<linearGradient id="paint0_linear_185_1339" x1="10.5" y1="10.1722" x2="30.1526" y2="30.1692" gradientUnits="userSpaceOnUse">
<stop stop-color="#9A4DFF"/>
<stop offset="1" stop-color="#F600DD"/>
</linearGradient>
</defs>
</svg>
