<svg width="32" height="32" viewBox="0 0 32 32" fill="none" xmlns="http://www.w3.org/2000/svg">
<path d="M22.0404 20.6262C21.6499 20.2357 21.0167 20.2357 20.6262 20.6262C20.2357 21.0168 20.2357 21.6499 20.6262 22.0404L22.0404 20.6262ZM23.9596 25.3738C24.3501 25.7643 24.9832 25.7643 25.3738 25.3738C25.7643 24.9833 25.7643 24.3501 25.3738 23.9596L23.9596 25.3738ZM20.3333 14C20.3333 17.4978 17.4978 20.3333 14 20.3333V22.3333C18.6024 22.3333 22.3333 18.6024 22.3333 14H20.3333ZM14 20.3333C10.5022 20.3333 7.66666 17.4978 7.66666 14H5.66666C5.66666 18.6024 9.39762 22.3333 14 22.3333V20.3333ZM7.66666 14C7.66666 10.5022 10.5022 7.66667 14 7.66667V5.66667C9.39762 5.66667 5.66666 9.39763 5.66666 14H7.66666ZM14 7.66667C17.4978 7.66667 20.3333 10.5022 20.3333 14H22.3333C22.3333 9.39763 18.6024 5.66667 14 5.66667V7.66667ZM20.6262 22.0404L23.9596 25.3738L25.3738 23.9596L22.0404 20.6262L20.6262 22.0404Z" fill="url(#paint0_linear_251_859)"/>
<defs>
<linearGradient id="paint0_linear_251_859" x1="6.66666" y1="6.66667" x2="24.6667" y2="24.6667" gradientUnits="userSpaceOnUse">
<stop stop-color="#9A4DFF"/>
<stop offset="1" stop-color="#F600DD"/>
</linearGradient>
</defs>
</svg>
