<svg width="24" height="24" viewBox="0 0 24 24" fill="none" xmlns="http://www.w3.org/2000/svg">
<path d="M15.8344 17.8573L16.2458 18.4845L15.8344 17.8573ZM19.0038 8.67818C18.8261 8.30404 18.3787 8.14482 18.0045 8.32255C17.6304 8.50029 17.4712 8.94768 17.6489 9.32182L19.0038 8.67818ZM16.0176 7.21214C16.3347 7.47857 16.8078 7.43746 17.0743 7.12031C17.3407 6.80316 17.2996 6.33007 16.9824 6.06364L16.0176 7.21214ZM5.75 12C5.75 8.54822 8.54822 5.75 12 5.75V4.25C7.71979 4.25 4.25 7.71979 4.25 12H5.75ZM13.25 10C13.25 10.5447 13.0684 11.1573 12.7787 11.6194C12.4722 12.1084 12.1707 12.25 12 12.25V13.75C12.9339 13.75 13.6323 13.0819 14.0497 12.4161C14.4839 11.7234 14.75 10.836 14.75 10H13.25ZM12 12.25C11.8293 12.25 11.5278 12.1084 11.2213 11.6194C10.9316 11.1573 10.75 10.5447 10.75 10H9.25C9.25 10.836 9.51613 11.7234 9.95031 12.4161C10.3677 13.0819 11.0661 13.75 12 13.75V12.25ZM10.75 10C10.75 9.48047 10.9123 9.19822 11.0889 9.03842C11.2783 8.86709 11.5809 8.75 12 8.75V7.25C11.3145 7.25 10.6171 7.44255 10.0826 7.92604C9.53542 8.42107 9.25 9.13882 9.25 10H10.75ZM12 8.75C12.4191 8.75 12.7217 8.86709 12.9111 9.03842C13.0877 9.19822 13.25 9.48047 13.25 10H14.75C14.75 9.13882 14.4646 8.42107 13.9174 7.92604C13.3829 7.44255 12.6855 7.25 12 7.25V8.75ZM8.88444 18.0712C9.05748 17.4897 9.59733 16.9006 10.3043 16.4357C10.6456 16.2112 10.9983 16.0345 11.3128 15.9158C11.6396 15.7926 11.8774 15.75 12 15.75V14.25C11.6226 14.25 11.1926 14.358 10.7835 14.5124C10.3621 14.6713 9.91087 14.8991 9.48008 15.1824C8.64273 15.7331 7.76538 16.5726 7.44674 17.6434L8.88444 18.0712ZM12 18.25C10.735 18.25 9.55986 17.875 8.57695 17.2302L7.75422 18.4845C8.97408 19.2846 10.4338 19.75 12 19.75V18.25ZM8.57695 17.2302C6.87281 16.1124 5.75 14.1871 5.75 12H4.25C4.25 14.7137 5.64536 17.1011 7.75422 18.4845L8.57695 17.2302ZM12 15.75C12.1226 15.75 12.3604 15.7926 12.6872 15.9158C13.0017 16.0345 13.3544 16.2112 13.6957 16.4357C14.4027 16.9006 14.9425 17.4897 15.1156 18.0712L16.5533 17.6434C16.2346 16.5726 15.3573 15.7331 14.5199 15.1824C14.0891 14.8991 13.6379 14.6713 13.2165 14.5124C12.8074 14.358 12.3774 14.25 12 14.25V15.75ZM18.25 12C18.25 14.1871 17.1272 16.1124 15.423 17.2302L16.2458 18.4845C18.3546 17.1011 19.75 14.7137 19.75 12H18.25ZM15.423 17.2302C14.4401 17.875 13.265 18.25 12 18.25V19.75C13.5662 19.75 15.0259 19.2846 16.2458 18.4845L15.423 17.2302ZM17.6489 9.32182C18.0341 10.1326 18.25 11.0401 18.25 12H19.75C19.75 10.8127 19.4825 9.68587 19.0038 8.67818L17.6489 9.32182ZM12 5.75C13.5306 5.75 14.9309 6.2992 16.0176 7.21214L16.9824 6.06364C15.6356 4.93215 13.8965 4.25 12 4.25V5.75Z" fill="url(#paint0_linear_114_539)"/>
<defs>
<linearGradient id="paint0_linear_114_539" x1="5" y1="5" x2="19" y2="19" gradientUnits="userSpaceOnUse">
<stop stop-color="#9A4DFF"/>
<stop offset="1" stop-color="#F600DD"/>
</linearGradient>
</defs>
</svg>
