<svg width="40" height="40" viewBox="0 0 40 40" fill="none" xmlns="http://www.w3.org/2000/svg">
<path d="M26.3906 29.7623L26.9391 30.5984L26.3906 29.7623ZM31.4471 14.5709C31.2101 14.0721 30.6136 13.8598 30.1148 14.0968C29.6159 14.3338 29.4036 14.9303 29.6406 15.4291L31.4471 14.5709ZM26.8567 11.8289C27.2795 12.1841 27.9103 12.1293 28.2656 11.7064C28.6208 11.2836 28.566 10.6528 28.1432 10.2975L26.8567 11.8289ZM9.33325 20C9.33325 14.109 14.1089 9.33337 19.9999 9.33337V7.33337C13.0043 7.33337 7.33325 13.0044 7.33325 20H9.33325ZM22.3333 16.6667C22.3333 17.6231 22.0165 18.6899 21.5096 19.4986C20.9803 20.343 20.4115 20.6667 19.9999 20.6667V22.6667C21.4292 22.6667 22.5271 21.641 23.2043 20.5608C23.9038 19.4447 24.3333 18.0115 24.3333 16.6667H22.3333ZM19.9999 20.6667C19.5883 20.6667 19.0195 20.343 18.4902 19.4986C17.9833 18.6899 17.6666 17.6231 17.6666 16.6667H15.6666C15.6666 18.0115 16.096 19.4447 16.7956 20.5608C17.4727 21.641 18.5706 22.6667 19.9999 22.6667V20.6667ZM17.6666 16.6667C17.6666 15.7439 17.9576 15.2009 18.3138 14.8787C18.6869 14.5411 19.2571 14.3334 19.9999 14.3334V12.3334C18.9018 12.3334 17.8053 12.6417 16.972 13.3955C16.1218 14.1647 15.6666 15.2883 15.6666 16.6667H17.6666ZM19.9999 14.3334C20.7428 14.3334 21.3129 14.5411 21.6861 14.8787C22.0422 15.2009 22.3333 15.7439 22.3333 16.6667H24.3333C24.3333 15.2883 23.8781 14.1647 23.0278 13.3955C22.1945 12.6417 21.098 12.3334 19.9999 12.3334V14.3334ZM14.5677 30.0475C14.8804 28.9967 15.8364 27.9731 17.0363 27.1839C17.6202 26.8 18.2244 26.497 18.7664 26.2925C19.3247 26.0819 19.7532 26 19.9999 26V24C19.4133 24 18.7287 24.1692 18.0606 24.4212C17.3761 24.6794 16.6405 25.0505 15.9374 25.5129C14.5636 26.4164 13.1576 27.7739 12.6508 29.4771L14.5677 30.0475ZM19.9999 30.6667C17.8414 30.6667 15.8354 30.0266 14.1577 28.9261L13.0607 30.5984C15.0543 31.9062 17.4398 32.6667 19.9999 32.6667V30.6667ZM14.1577 28.9261C11.25 27.0188 9.33325 23.733 9.33325 20H7.33325C7.33325 24.4351 9.61342 28.3371 13.0607 30.5984L14.1577 28.9261ZM19.9999 26C20.2467 26 20.6751 26.0819 21.2334 26.2925C21.7755 26.497 22.3797 26.8 22.9635 27.1839C24.1635 27.9731 25.1195 28.9967 25.4321 30.0475L27.3491 29.4771C26.8423 27.7739 25.4363 26.4164 24.0624 25.5129C23.3593 25.0505 22.6237 24.6794 21.9393 24.4212C21.2711 24.1692 20.5865 24 19.9999 24V26ZM30.6666 20C30.6666 23.733 28.7498 27.0188 25.8421 28.9261L26.9391 30.5984C30.3864 28.3371 32.6666 24.4351 32.6666 20H30.6666ZM25.8421 28.9261C24.1645 30.0266 22.1585 30.6667 19.9999 30.6667V32.6667C22.56 32.6667 24.9455 31.9062 26.9391 30.5984L25.8421 28.9261ZM29.6406 15.4291C30.2982 16.8133 30.6666 18.3623 30.6666 20H32.6666C32.6666 18.0592 32.2294 16.2176 31.4471 14.5709L29.6406 15.4291ZM19.9999 9.33337C22.6118 9.33337 25.0022 10.2709 26.8567 11.8289L28.1432 10.2975C25.9418 8.44814 23.0997 7.33337 19.9999 7.33337V9.33337Z" fill="url(#paint0_linear_185_1340)"/>
<defs>
<linearGradient id="paint0_linear_185_1340" x1="8.33325" y1="8.33337" x2="31.6666" y2="31.6667" gradientUnits="userSpaceOnUse">
<stop stop-color="#9A4DFF"/>
<stop offset="1" stop-color="#F600DD"/>
</linearGradient>
</defs>
</svg>
