<svg width="20" height="20" viewBox="0 0 20 20" fill="none" xmlns="http://www.w3.org/2000/svg">
<path d="M8.08453 2.32755C7.55957 2.96545 6.7515 3.30016 5.92924 3.2203C4.37491 3.06935 3.06938 4.37488 3.22033 5.92921C3.30019 6.75147 2.96548 7.55954 2.32758 8.0845C1.12176 9.07684 1.12176 10.9231 2.32758 11.9155C2.96548 12.4404 3.30019 13.2485 3.22033 14.0708C3.06938 15.6251 4.37491 16.9306 5.92924 16.7797C6.7515 16.6998 7.55957 17.0345 8.08453 17.6724C9.07687 18.8782 10.9232 18.8782 11.9155 17.6724C12.4405 17.0345 13.2485 16.6998 14.0708 16.7797C15.6251 16.9306 16.9307 15.6251 16.7797 14.0708C16.6998 13.2485 17.0346 12.4404 17.6725 11.9155C18.8783 10.9231 18.8783 9.07684 17.6725 8.0845C17.0346 7.55954 16.6998 6.75147 16.7797 5.92921C16.9307 4.37488 15.6251 3.06935 14.0708 3.2203C13.2485 3.30016 12.4405 2.96545 11.9155 2.32755C10.9232 1.12173 9.07687 1.12173 8.08453 2.32755Z" fill="#3BD4FF" stroke="#5EEBFF"/>
<g filter="url(#filter0_d_119_962)">
<path d="M7.37379 8.87623C6.98327 8.4857 6.3501 8.4857 5.95958 8.87623C5.56906 9.26675 5.56906 9.89992 5.95958 10.2904L7.37379 8.87623ZM9.16669 12.0833L8.45958 12.7904C8.64712 12.978 8.90147 13.0833 9.16669 13.0833C9.4319 13.0833 9.68626 12.978 9.87379 12.7904L9.16669 12.0833ZM14.4571 8.20711C14.8477 7.81658 14.8477 7.18342 14.4571 6.79289C14.0666 6.40237 13.4334 6.40237 13.0429 6.79289L14.4571 8.20711ZM5.95958 10.2904L8.45958 12.7904L9.87379 11.3762L7.37379 8.87623L5.95958 10.2904ZM9.87379 12.7904L14.4571 8.20711L13.0429 6.79289L8.45958 11.3762L9.87379 12.7904Z" fill="white"/>
</g>
<defs>
<filter id="filter0_d_119_962" x="3.66669" y="4.5" width="13.0833" height="10.5833" filterUnits="userSpaceOnUse" color-interpolation-filters="sRGB">
<feFlood flood-opacity="0" result="BackgroundImageFix"/>
<feColorMatrix in="SourceAlpha" type="matrix" values="0 0 0 0 0 0 0 0 0 0 0 0 0 0 0 0 0 0 127 0" result="hardAlpha"/>
<feOffset/>
<feGaussianBlur stdDeviation="1"/>
<feComposite in2="hardAlpha" operator="out"/>
<feColorMatrix type="matrix" values="0 0 0 0 0 0 0 0 0 0.338437 0 0 0 0 0.483482 0 0 0 0.4 0"/>
<feBlend mode="normal" in2="BackgroundImageFix" result="effect1_dropShadow_119_962"/>
<feBlend mode="normal" in="SourceGraphic" in2="effect1_dropShadow_119_962" result="shape"/>
</filter>
</defs>
</svg>
