<svg width="41" height="40" viewBox="0 0 41 40" fill="none" xmlns="http://www.w3.org/2000/svg">
<path d="M24.6667 16C25.219 16 25.6667 15.5523 25.6667 15C25.6667 14.4477 25.219 14 24.6667 14V16ZM28.8334 14C28.2811 14 27.8334 14.4477 27.8334 15C27.8334 15.5523 28.2811 16 28.8334 16V14ZM15.8811 20.7783L14.9663 21.1822L15.8811 20.7783ZM25.1191 20.7783L26.0339 21.1822L25.1191 20.7783ZM32.8334 13.3333V26.6667H34.8334V13.3333H32.8334ZM30.5001 29H10.5001V31H30.5001V29ZM8.16675 26.6667V13.3333H6.16675V26.6667H8.16675ZM10.5001 11H30.5001V9H10.5001V11ZM20.5001 24.3333C22.1058 24.3333 23.3336 23.9456 24.2546 23.3246C25.1724 22.7057 25.7159 21.9024 26.0339 21.1822L24.2043 20.3744C24.0047 20.8266 23.6787 21.3007 23.1365 21.6663C22.5975 22.0297 21.7746 22.3333 20.5001 22.3333V24.3333ZM27.1667 20.1667H33.8334V18.1667H27.1667V20.1667ZM7.16675 20.1667H13.8334V18.1667H7.16675V20.1667ZM14.9663 21.1822C15.2843 21.9024 15.8277 22.7057 16.7455 23.3246C17.6666 23.9456 18.8943 24.3333 20.5001 24.3333V22.3333C19.2255 22.3333 18.4026 22.0297 17.8636 21.6663C17.3214 21.3007 16.9955 20.8266 16.7958 20.3744L14.9663 21.1822ZM7.16675 16H24.6667V14H7.16675V16ZM28.8334 16H33.8334V14H28.8334V16ZM13.8334 20.1667C14.1763 20.1667 14.6653 20.5006 14.9663 21.1822L16.7958 20.3744C16.3532 19.372 15.3315 18.1667 13.8334 18.1667V20.1667ZM10.5001 29C9.21142 29 8.16675 27.9553 8.16675 26.6667H6.16675C6.16675 29.0599 8.10685 31 10.5001 31V29ZM32.8334 26.6667C32.8334 27.9553 31.7887 29 30.5001 29V31C32.8933 31 34.8334 29.0599 34.8334 26.6667H32.8334ZM34.8334 13.3333C34.8334 10.9401 32.8933 9 30.5001 9V11C31.7887 11 32.8334 12.0447 32.8334 13.3333H34.8334ZM26.0339 21.1822C26.3349 20.5006 26.8239 20.1667 27.1667 20.1667V18.1667C25.6686 18.1667 24.647 19.372 24.2043 20.3744L26.0339 21.1822ZM8.16675 13.3333C8.16675 12.0447 9.21142 11 10.5001 11V9C8.10685 9 6.16675 10.9401 6.16675 13.3333H8.16675Z" fill="url(#paint0_linear_185_1336)"/>
<defs>
<linearGradient id="paint0_linear_185_1336" x1="7.16675" y1="10" x2="26.3667" y2="35.6" gradientUnits="userSpaceOnUse">
<stop stop-color="#9A4DFF"/>
<stop offset="1" stop-color="#F600DD"/>
</linearGradient>
</defs>
</svg>
